#N canvas 899 23 823 655 10;
#X floatatom 214 517 5 0 0 1 min - -;
#X floatatom 340 517 5 0 0 1 max - -;
#X msg 225 146 set 40 30;
#N canvas 289 22 307 219 colors 0;
#N canvas 0 22 483 390 rgb 0;
#X floatatom 105 105 5 0 255 1 red - -;
#X floatatom 105 125 5 0 255 1 green - -;
#X floatatom 105 145 5 0 255 1 blue - -;
#X obj 98 203 t b f;
#X obj 57 185 t b f;
#X obj 47 299 outlet;
#X obj 47 239 pack f f f;
#N canvas 240 274 450 300 rgb2pd 0;
#X obj 174 257 +;
#X obj 96 274 +;
#X obj 96 224 * -65536;
#X obj 174 224 * -256;
#X obj 256 240 * -1;
#X obj 96 305 - 1;
#X obj 96 343 outlet;
#X obj 96 192 int 0;
#X obj 174 192 int 0;
#X obj 256 192 int 0;
#X obj 96 111 unpack f f f;
#X obj 96 151 clip 0 255;
#X obj 174 151 clip 0 255;
#X obj 256 151 clip 0 255;
#X text 139 58 (0-255);
#X obj 96 60 inlet;
#X connect 0 0 1 1;
#X connect 1 0 5 0;
#X connect 2 0 1 0;
#X connect 3 0 0 0;
#X connect 4 0 0 1;
#X connect 5 0 6 0;
#X connect 7 0 2 0;
#X connect 8 0 3 0;
#X connect 9 0 4 0;
#X connect 10 0 11 0;
#X connect 10 1 12 0;
#X connect 10 2 13 0;
#X connect 11 0 7 0;
#X connect 12 0 8 0;
#X connect 13 0 9 0;
#X connect 15 0 10 0;
#X restore 46 265 pd rgb2pd;
#X connect 0 0 6 0;
#X connect 1 0 4 0;
#X connect 2 0 3 0;
#X connect 3 0 6 0;
#X connect 3 1 6 2;
#X connect 4 0 6 0;
#X connect 4 1 6 1;
#X connect 6 0 7 0;
#X connect 7 0 5 0;
#X coords 0 -1 1 1 75 65 2 100 100;
#X restore 75 56 pd rgb;
#X obj 75 168 outlet;
#X msg 75 134 fgcolor \$1;
#X msg 164 134 bgcolor \$1;
#N canvas 0 22 483 390 rgb 0;
#X floatatom 105 105 5 0 255 1 red - -;
#X floatatom 105 125 5 0 255 1 green - -;
#X floatatom 105 145 5 0 255 1 blue - -;
#X obj 98 203 t b f;
#X obj 57 185 t b f;
#X obj 47 299 outlet;
#X obj 47 239 pack f f f;
#N canvas 355 313 450 300 rgb2pd 0;
#X obj 184 267 +;
#X obj 106 284 +;
#X obj 106 234 * -65536;
#X obj 184 234 * -256;
#X obj 266 250 * -1;
#X obj 106 315 - 1;
#X obj 106 353 outlet;
#X obj 106 202 int 0;
#X obj 184 202 int 0;
#X obj 266 202 int 0;
#X obj 106 121 unpack f f f;
#X obj 106 161 clip 0 255;
#X obj 184 161 clip 0 255;
#X obj 266 161 clip 0 255;
#X text 149 68 (0-255);
#X obj 106 70 inlet;
#X connect 0 0 1 1;
#X connect 1 0 5 0;
#X connect 2 0 1 0;
#X connect 3 0 0 0;
#X connect 4 0 0 1;
#X connect 5 0 6 0;
#X connect 7 0 2 0;
#X connect 8 0 3 0;
#X connect 9 0 4 0;
#X connect 10 0 11 0;
#X connect 10 1 12 0;
#X connect 10 2 13 0;
#X connect 11 0 7 0;
#X connect 12 0 8 0;
#X connect 13 0 9 0;
#X connect 15 0 10 0;
#X restore 46 265 pd rgb2pd;
#X connect 0 0 6 0;
#X connect 1 0 4 0;
#X connect 2 0 3 0;
#X connect 3 0 6 0;
#X connect 3 1 6 2;
#X connect 4 0 6 0;
#X connect 4 1 6 1;
#X connect 6 0 7 0;
#X connect 7 0 5 0;
#X coords 0 -1 1 1 75 65 2 100 100;
#X restore 164 56 pd rgb;
#X connect 0 0 2 0;
#X connect 2 0 1 0;
#X connect 3 0 1 0;
#X connect 4 0 3 0;
#X restore 351 401 pd colors;
#X obj 25 315 vradio 15 1 0 5 empty empty empty 0 -8 0 10 -262144 -1
-1 0;
#X msg 25 411 mode \$1;
#X text 42 315 0 = selection;
#X text 42 360 3 = expand (drag up/down);
#X msg 249 175 bang;
#X text 281 176 output current values;
#X text 291 146 set the two values without outputting them;
#X msg 287 266 size \$1 \$2;
#X msg 333 366 clipinput \$1;
#X obj 333 344 tgl 15 0 empty empty empty 17 7 0 10 -262144 -1 -1 0
1;
#X text 419 358 clips input values so that they output within the range
set by [setminmax(. Default is 1;
#X msg 269 206 setminmax 0 200;
#X msg 214 109 20 80;
#X text 254 108 list sets both values and outputs them;
#X text 414 402 open this to see how to set colors;
#X text 370 206 set minimum and maximum values (default is 0 127);
#X text 42 375 4 = no response to mouse;
#X msg 321 320 send \$0-outlet1 \$0-outlet2;
#X obj 214 484 rslider;
#X obj 6 5 cnv 15 800 60 empty empty rslider 20 12 0 14 -233017 -66577
0;
#X text 24 45 range slider;
#X text 655 44 2013 Gilberto Bernardes;
#X text 691 68 based on mmb code;
#X text 418 480 arg:;
#X text 19 289 interaction mode:;
#X msg 309 294 receive \$0-inlet1;
#X text 418 499 height (in pixels \, default 15);
#X text 418 518 width (in pixels \, default 133);
#N canvas 0 22 450 278 (subpatch) 0;
#X obj 0 84 outlet;
#X obj 0 0 cnv 15 150 20 empty empty empty 20 12 0 14 -262144 -66577
0;
#X obj 0 49 pack f f;
#X floatatom 0 2 5 0 0 1 width - -;
#X floatatom 68 2 5 0 0 1 heigth - -;
#X obj 68 24 t b f;
#X connect 2 0 0 0;
#X connect 3 0 2 0;
#X connect 4 0 5 0;
#X connect 5 0 2 0;
#X connect 5 1 2 1;
#X coords 0 1 100 -1 150 20 1 0 0;
#X restore 287 241 graph;
#X text 42 330 1 = shift (or shift key);
#X text 42 345 2 = extend;
#N canvas 594 393 494 344 META 0;
#X text 12 45 LICENSE GPL v3;
#X text 12 215 RELEASE_DATE 2013;
#X text 12 195 WEBSITE https://sites.google.com/site/eargram/;
#X text 12 175 AUTHOR Gilberto Bernardes;
#X text 12 155 LIBRARY earGram_abs;
#X text 12 65 DESCRIPTION range slider;
#X text 12 85 INLET_0 list bang set setminmax size mode receive send
clipinput bgcolor fgcolor;
#X text 13 118 OUTLET_0 float (min);
#X text 12 136 OUTLET_1 float (max);
#X restore 759 626 pd META;
#X connect 2 0 22 0;
#X connect 3 0 22 0;
#X connect 4 0 5 0;
#X connect 5 0 22 0;
#X connect 8 0 22 0;
#X connect 11 0 22 0;
#X connect 12 0 22 0;
#X connect 13 0 12 0;
#X connect 15 0 22 0;
#X connect 16 0 22 0;
#X connect 21 0 22 0;
#X connect 22 0 0 0;
#X connect 22 1 1 0;
#X connect 29 0 22 0;
#X connect 32 0 11 0;
